<?xml version="1.0" standalone="no"?>
<!DOCTYPE svg PUBLIC "-//W3C//DTD SVG 20010904//EN"
 "http://www.w3.org/TR/2001/REC-SVG-20010904/DTD/svg10.dtd">
<svg version="1.0" xmlns="http://www.w3.org/2000/svg"
 width="700.000000pt" height="700.000000pt" viewBox="0 0 700.000000 700.000000"
 preserveAspectRatio="xMidYMid meet">
<metadata>
Created by potrace 1.14, written by Peter Selinger 2001-2017
</metadata>
<g transform="translate(0.000000,700.000000) scale(0.100000,-0.100000)"
fill="#000000" stroke="none">
<path d="M3365 6681 c-69 -11 -117 -26 -535 -161 -201 -65 -491 -157 -645
-205 -637 -197 -1343 -417 -1385 -432 -65 -23 -110 -60 -131 -109 -17 -36 -21
-83 -29 -311 -26 -726 -2 -1326 70 -1770 118 -726 374 -1382 737 -1887 480
-668 1152 -1216 1725 -1408 273 -91 404 -90 680 2 144 48 400 172 546 264 399
253 782 615 1073 1016 439 603 688 1187 828 1940 78 416 107 954 90 1655 -11
489 -22 543 -116 583 -57 24 -229 78 -638 201 -351 105 -500 152 -1200 374
-811 258 -772 247 -905 252 -63 2 -138 0 -165 -4z m-453 -2341 c20 -6 48 -24
62 -40 47 -57 50 -101 37 -640 -6 -272 -14 -548 -17 -612 l-5 -118 66 0 c110
0 178 51 237 177 41 88 45 139 52 672 4 256 8 467 10 469 2 2 37 15 77 29 60
21 99 27 208 31 l134 5 -7 -414 c-7 -423 -20 -744 -36 -904 -5 -49 -7 -91 -5
-93 9 -9 133 57 191 101 72 55 122 118 193 241 83 147 186 410 193 494 3 33 1
34 -59 57 -66 25 -105 47 -140 79 -20 17 -23 29 -23 90 1 112 35 194 149 353
14 19 25 22 82 23 184 1 278 -96 287 -299 17 -357 -246 -899 -613 -1266 -159
-160 -254 -205 -433 -206 -94 0 -127 8 -154 38 -26 28 -55 102 -63 156 -4 26
-10 47 -14 47 -4 0 -44 -29 -89 -66 -116 -91 -179 -129 -253 -154 -82 -28
-210 -32 -255 -7 -28 14 -79 80 -114 146 -8 16 -15 142 -21 430 -5 223 -14
468 -19 545 -11 149 -46 346 -85 482 -14 46 -25 91 -25 98 0 8 19 22 43 31 75
28 338 44 409 25z m1554 -1591 c13 -11 15 -25 11 -72 -7 -83 -26 -100 -100
-95 -77 6 -92 22 -92 96 1 93 3 95 90 90 41 -3 82 -11 91 -19z"/>
</g>
</svg>
