<?xml version="1.0" encoding="UTF-8" standalone="no"?>
<!DOCTYPE svg PUBLIC "-//W3C//DTD SVG 1.1//EN" "http://www.w3.org/Graphics/SVG/1.1/DTD/svg11.dtd">
<svg xmlns="http://www.w3.org/2000/svg" version="1.1" viewBox="0.00 0.00 500.00 500.00">
<g stroke-width="2.00" fill="none" stroke-linecap="butt">
<path stroke="#efaa92" vector-effect="non-scaling-stroke" d="
  M 402.09 256.38
  A 0.55 0.54 -48.2 0 1 402.13 257.23
  C 396.76 261.94 390.98 267.02 386.83 272.70
  Q 380.13 281.85 377.38 293.77
  Q 375.91 300.12 376.00 313.48
  Q 376.16 335.64 376.12 360.48
  C 376.12 364.47 376.36 368.95 375.25 372.69
  Q 372.32 382.64 362.73 385.49
  C 358.46 386.76 353.07 386.15 348.49 386.27
  A 0.47 0.47 0.0 0 0 348.03 386.74
  L 348.05 422.50
  A 0.72 0.72 0.0 0 0 348.77 423.22
  C 356.50 423.14 365.25 423.91 372.68 421.65
  C 398.05 413.93 413.42 392.34 413.45 366.16
  Q 413.49 336.15 413.43 306.39
  C 413.42 300.19 415.59 295.03 420.21 290.97
  Q 430.79 281.70 442.96 270.91
  Q 452.42 262.52 450.28 251.98
  C 449.36 247.48 447.27 243.84 443.76 241.11
  Q 433.74 233.34 422.71 225.21
  C 416.80 220.87 413.52 216.32 413.50 208.96
  Q 413.41 176.78 413.48 146.60
  Q 413.56 114.96 388.89 97.26
  Q 380.90 91.53 369.32 88.90
  C 362.67 87.40 355.54 88.01 348.65 87.85
  A 0.60 0.60 0.0 0 0 348.04 88.45
  L 348.03 124.24
  A 0.49 0.49 0.0 0 0 348.52 124.73
  C 352.64 124.73 356.94 124.55 360.91 125.31
  Q 371.03 127.28 374.75 137.05
  Q 376.23 140.95 376.18 147.68
  Q 375.95 179.49 376.14 208.44
  C 376.27 229.18 385.59 244.77 402.09 256.38"
/>
<path stroke="#efaa92" vector-effect="non-scaling-stroke" d="
  M 98.04 259.05
  C 114.57 247.04 123.81 230.98 123.90 210.29
  Q 124.04 180.41 123.85 149.86
  Q 123.80 143.01 125.29 139.31
  Q 128.41 131.55 136.29 128.76
  C 140.87 127.13 146.33 127.50 151.23 127.52
  Q 151.97 127.52 151.97 126.78
  L 151.96 91.25
  Q 151.96 90.66 151.37 90.64
  Q 139.18 90.22 132.36 91.40
  C 105.54 96.06 86.57 119.32 86.52 146.90
  Q 86.47 176.83 86.56 210.27
  C 86.57 216.79 84.28 222.30 79.01 226.45
  Q 70.74 232.96 59.07 241.33
  C 53.72 245.17 50.06 249.27 49.45 256.00
  Q 48.55 265.98 55.23 272.02
  Q 66.01 281.76 77.86 292.01
  C 83.30 296.71 86.51 301.53 86.52 308.77
  Q 86.55 336.48 86.49 368.49
  Q 86.45 394.14 103.91 411.07
  Q 114.41 421.24 129.44 425.00
  C 136.25 426.70 144.32 425.89 151.48 426.04
  A 0.48 0.48 0.0 0 0 151.97 425.56
  L 151.97 389.46
  A 0.44 0.44 0.0 0 0 151.53 389.02
  Q 146.71 389.03 141.87 388.98
  C 131.66 388.88 124.00 380.46 123.97 370.32
  Q 123.87 340.87 123.95 311.01
  Q 124.03 283.62 104.53 265.96
  Q 101.30 263.04 97.99 260.07
  Q 97.38 259.53 98.04 259.05"
/>
<path stroke="#f7b29a" vector-effect="non-scaling-stroke" d="
  M 222.30 259.24
  L 239.46 259.23
  A 1.70 1.66 70.5 0 1 240.78 259.88
  Q 271.75 299.60 298.80 342.28
  A 2.05 2.04 -16.0 0 0 300.53 343.23
  L 349.00 343.24
  A 0.50 0.49 -0.0 0 0 349.50 342.75
  L 349.45 334.26
  Q 349.45 333.71 348.89 333.68
  Q 340.49 333.30 334.92 331.28
  Q 325.96 328.03 318.61 319.89
  Q 314.50 315.35 303.64 300.37
  C 291.98 284.29 280.10 268.24 268.08 252.60
  A 0.66 0.66 0.0 0 1 268.42 251.56
  Q 278.77 248.66 287.67 243.59
  Q 313.50 228.89 312.62 199.81
  C 311.92 176.46 294.63 164.11 273.55 159.75
  Q 265.17 158.02 254.18 158.01
  Q 212.15 157.99 169.17 158.02
  Q 168.90 158.02 168.90 158.29
  L 168.99 167.02
  A 0.29 0.29 0.0 0 0 169.26 167.31
  Q 175.83 167.69 182.33 169.25
  C 193.36 171.91 193.89 178.40 193.87 187.92
  Q 193.74 252.91 193.88 317.57
  C 193.89 324.23 192.59 329.33 184.89 331.26
  Q 177.01 333.23 169.23 333.69
  Q 168.96 333.71 168.96 333.98
  L 168.97 342.98
  Q 168.97 343.23 169.23 343.23
  L 246.95 343.24
  Q 247.20 343.24 247.20 343.00
  L 247.26 334.00
  Q 247.26 333.73 246.99 333.71
  Q 239.92 333.32 230.73 331.44
  Q 221.92 329.63 221.82 321.00
  Q 221.48 289.12 221.79 259.75
  Q 221.80 259.24 222.30 259.24"
/>
<path stroke="#f7b29a" vector-effect="non-scaling-stroke" d="
  M 274.96 228.04
  C 281.99 215.53 283.09 196.00 274.76 183.27
  C 267.45 172.10 255.41 168.41 242.17 168.50
  Q 233.14 168.56 222.30 168.46
  Q 221.71 168.45 221.71 169.03
  L 221.69 247.64
  A 0.37 0.37 0.0 0 0 222.06 248.01
  C 230.62 248.05 239.37 248.40 248.01 246.97
  C 259.40 245.09 269.43 237.89 274.96 228.04"
/>
</g>
<path fill="#ee6435" d="
  M 470.93 86.95
  L 470.91 413.05
  A 64.96 64.96 0.0 0 1 405.95 478.00
  L 93.98 478.01
  A 64.96 64.96 0.0 0 1 29.02 413.05
  L 29.00 86.94
  A 64.96 64.96 0.0 0 1 93.96 21.98
  L 405.97 21.98
  A 64.96 64.96 0.0 0 1 470.93 86.95
  Z
  M 402.09 256.38
  A 0.55 0.54 -48.2 0 1 402.13 257.23
  C 396.76 261.94 390.98 267.02 386.83 272.70
  Q 380.13 281.85 377.38 293.77
  Q 375.91 300.12 376.00 313.48
  Q 376.16 335.64 376.12 360.48
  C 376.12 364.47 376.36 368.95 375.25 372.69
  Q 372.32 382.64 362.73 385.49
  C 358.46 386.76 353.07 386.15 348.49 386.27
  A 0.47 0.47 0.0 0 0 348.03 386.74
  L 348.05 422.50
  A 0.72 0.72 0.0 0 0 348.77 423.22
  C 356.50 423.14 365.25 423.91 372.68 421.65
  C 398.05 413.93 413.42 392.34 413.45 366.16
  Q 413.49 336.15 413.43 306.39
  C 413.42 300.19 415.59 295.03 420.21 290.97
  Q 430.79 281.70 442.96 270.91
  Q 452.42 262.52 450.28 251.98
  C 449.36 247.48 447.27 243.84 443.76 241.11
  Q 433.74 233.34 422.71 225.21
  C 416.80 220.87 413.52 216.32 413.50 208.96
  Q 413.41 176.78 413.48 146.60
  Q 413.56 114.96 388.89 97.26
  Q 380.90 91.53 369.32 88.90
  C 362.67 87.40 355.54 88.01 348.65 87.85
  A 0.60 0.60 0.0 0 0 348.04 88.45
  L 348.03 124.24
  A 0.49 0.49 0.0 0 0 348.52 124.73
  C 352.64 124.73 356.94 124.55 360.91 125.31
  Q 371.03 127.28 374.75 137.05
  Q 376.23 140.95 376.18 147.68
  Q 375.95 179.49 376.14 208.44
  C 376.27 229.18 385.59 244.77 402.09 256.38
  Z
  M 98.04 259.05
  C 114.57 247.04 123.81 230.98 123.90 210.29
  Q 124.04 180.41 123.85 149.86
  Q 123.80 143.01 125.29 139.31
  Q 128.41 131.55 136.29 128.76
  C 140.87 127.13 146.33 127.50 151.23 127.52
  Q 151.97 127.52 151.97 126.78
  L 151.96 91.25
  Q 151.96 90.66 151.37 90.64
  Q 139.18 90.22 132.36 91.40
  C 105.54 96.06 86.57 119.32 86.52 146.90
  Q 86.47 176.83 86.56 210.27
  C 86.57 216.79 84.28 222.30 79.01 226.45
  Q 70.74 232.96 59.07 241.33
  C 53.72 245.17 50.06 249.27 49.45 256.00
  Q 48.55 265.98 55.23 272.02
  Q 66.01 281.76 77.86 292.01
  C 83.30 296.71 86.51 301.53 86.52 308.77
  Q 86.55 336.48 86.49 368.49
  Q 86.45 394.14 103.91 411.07
  Q 114.41 421.24 129.44 425.00
  C 136.25 426.70 144.32 425.89 151.48 426.04
  A 0.48 0.48 0.0 0 0 151.97 425.56
  L 151.97 389.46
  A 0.44 0.44 0.0 0 0 151.53 389.02
  Q 146.71 389.03 141.87 388.98
  C 131.66 388.88 124.00 380.46 123.97 370.32
  Q 123.87 340.87 123.95 311.01
  Q 124.03 283.62 104.53 265.96
  Q 101.30 263.04 97.99 260.07
  Q 97.38 259.53 98.04 259.05
  Z
  M 222.30 259.24
  L 239.46 259.23
  A 1.70 1.66 70.5 0 1 240.78 259.88
  Q 271.75 299.60 298.80 342.28
  A 2.05 2.04 -16.0 0 0 300.53 343.23
  L 349.00 343.24
  A 0.50 0.49 -0.0 0 0 349.50 342.75
  L 349.45 334.26
  Q 349.45 333.71 348.89 333.68
  Q 340.49 333.30 334.92 331.28
  Q 325.96 328.03 318.61 319.89
  Q 314.50 315.35 303.64 300.37
  C 291.98 284.29 280.10 268.24 268.08 252.60
  A 0.66 0.66 0.0 0 1 268.42 251.56
  Q 278.77 248.66 287.67 243.59
  Q 313.50 228.89 312.62 199.81
  C 311.92 176.46 294.63 164.11 273.55 159.75
  Q 265.17 158.02 254.18 158.01
  Q 212.15 157.99 169.17 158.02
  Q 168.90 158.02 168.90 158.29
  L 168.99 167.02
  A 0.29 0.29 0.0 0 0 169.26 167.31
  Q 175.83 167.69 182.33 169.25
  C 193.36 171.91 193.89 178.40 193.87 187.92
  Q 193.74 252.91 193.88 317.57
  C 193.89 324.23 192.59 329.33 184.89 331.26
  Q 177.01 333.23 169.23 333.69
  Q 168.96 333.71 168.96 333.98
  L 168.97 342.98
  Q 168.97 343.23 169.23 343.23
  L 246.95 343.24
  Q 247.20 343.24 247.20 343.00
  L 247.26 334.00
  Q 247.26 333.73 246.99 333.71
  Q 239.92 333.32 230.73 331.44
  Q 221.92 329.63 221.82 321.00
  Q 221.48 289.12 221.79 259.75
  Q 221.80 259.24 222.30 259.24
  Z"
/>
<path fill="#efefef" d="
  M 402.09 256.38
  C 385.59 244.77 376.27 229.18 376.14 208.44
  Q 375.95 179.49 376.18 147.68
  Q 376.23 140.95 374.75 137.05
  Q 371.03 127.28 360.91 125.31
  C 356.94 124.55 352.64 124.73 348.52 124.73
  A 0.49 0.49 0.0 0 1 348.03 124.24
  L 348.04 88.45
  A 0.60 0.60 0.0 0 1 348.65 87.85
  C 355.54 88.01 362.67 87.40 369.32 88.90
  Q 380.90 91.53 388.89 97.26
  Q 413.56 114.96 413.48 146.60
  Q 413.41 176.78 413.50 208.96
  C 413.52 216.32 416.80 220.87 422.71 225.21
  Q 433.74 233.34 443.76 241.11
  C 447.27 243.84 449.36 247.48 450.28 251.98
  Q 452.42 262.52 442.96 270.91
  Q 430.79 281.70 420.21 290.97
  C 415.59 295.03 413.42 300.19 413.43 306.39
  Q 413.49 336.15 413.45 366.16
  C 413.42 392.34 398.05 413.93 372.68 421.65
  C 365.25 423.91 356.50 423.14 348.77 423.22
  A 0.72 0.72 0.0 0 1 348.05 422.50
  L 348.03 386.74
  A 0.47 0.47 0.0 0 1 348.49 386.27
  C 353.07 386.15 358.46 386.76 362.73 385.49
  Q 372.32 382.64 375.25 372.69
  C 376.36 368.95 376.12 364.47 376.12 360.48
  Q 376.16 335.64 376.00 313.48
  Q 375.91 300.12 377.38 293.77
  Q 380.13 281.85 386.83 272.70
  C 390.98 267.02 396.76 261.94 402.13 257.23
  A 0.55 0.54 -48.2 0 0 402.09 256.38
  Z"
/>
<path fill="#efefef" d="
  M 97.99 260.07
  Q 101.30 263.04 104.53 265.96
  Q 124.03 283.62 123.95 311.01
  Q 123.87 340.87 123.97 370.32
  C 124.00 380.46 131.66 388.88 141.87 388.98
  Q 146.71 389.03 151.53 389.02
  A 0.44 0.44 0.0 0 1 151.97 389.46
  L 151.97 425.56
  A 0.48 0.48 0.0 0 1 151.48 426.04
  C 144.32 425.89 136.25 426.70 129.44 425.00
  Q 114.41 421.24 103.91 411.07
  Q 86.45 394.14 86.49 368.49
  Q 86.55 336.48 86.52 308.77
  C 86.51 301.53 83.30 296.71 77.86 292.01
  Q 66.01 281.76 55.23 272.02
  Q 48.55 265.98 49.45 256.00
  C 50.06 249.27 53.72 245.17 59.07 241.33
  Q 70.74 232.96 79.01 226.45
  C 84.28 222.30 86.57 216.79 86.56 210.27
  Q 86.47 176.83 86.52 146.90
  C 86.57 119.32 105.54 96.06 132.36 91.40
  Q 139.18 90.22 151.37 90.64
  Q 151.96 90.66 151.96 91.25
  L 151.97 126.78
  Q 151.97 127.52 151.23 127.52
  C 146.33 127.50 140.87 127.13 136.29 128.76
  Q 128.41 131.55 125.29 139.31
  Q 123.80 143.01 123.85 149.86
  Q 124.04 180.41 123.90 210.29
  C 123.81 230.98 114.57 247.04 98.04 259.05
  Q 97.38 259.53 97.99 260.07
  Z"
/>
<path fill="#ffffff" d="
  M 221.79 259.75
  Q 221.48 289.12 221.82 321.00
  Q 221.92 329.63 230.73 331.44
  Q 239.92 333.32 246.99 333.71
  Q 247.26 333.73 247.26 334.00
  L 247.20 343.00
  Q 247.20 343.24 246.95 343.24
  L 169.23 343.23
  Q 168.97 343.23 168.97 342.98
  L 168.96 333.98
  Q 168.96 333.71 169.23 333.69
  Q 177.01 333.23 184.89 331.26
  C 192.59 329.33 193.89 324.23 193.88 317.57
  Q 193.74 252.91 193.87 187.92
  C 193.89 178.40 193.36 171.91 182.33 169.25
  Q 175.83 167.69 169.26 167.31
  A 0.29 0.29 0.0 0 1 168.99 167.02
  L 168.90 158.29
  Q 168.90 158.02 169.17 158.02
  Q 212.15 157.99 254.18 158.01
  Q 265.17 158.02 273.55 159.75
  C 294.63 164.11 311.92 176.46 312.62 199.81
  Q 313.50 228.89 287.67 243.59
  Q 278.77 248.66 268.42 251.56
  A 0.66 0.66 0.0 0 0 268.08 252.60
  C 280.10 268.24 291.98 284.29 303.64 300.37
  Q 314.50 315.35 318.61 319.89
  Q 325.96 328.03 334.92 331.28
  Q 340.49 333.30 348.89 333.68
  Q 349.45 333.71 349.45 334.26
  L 349.50 342.75
  A 0.50 0.49 -0.0 0 1 349.00 343.24
  L 300.53 343.23
  A 2.05 2.04 -16.0 0 1 298.80 342.28
  Q 271.75 299.60 240.78 259.88
  A 1.70 1.66 70.5 0 0 239.46 259.23
  L 222.30 259.24
  Q 221.80 259.24 221.79 259.75
  Z
  M 274.96 228.04
  C 281.99 215.53 283.09 196.00 274.76 183.27
  C 267.45 172.10 255.41 168.41 242.17 168.50
  Q 233.14 168.56 222.30 168.46
  Q 221.71 168.45 221.71 169.03
  L 221.69 247.64
  A 0.37 0.37 0.0 0 0 222.06 248.01
  C 230.62 248.05 239.37 248.40 248.01 246.97
  C 259.40 245.09 269.43 237.89 274.96 228.04
  Z"
/>
<path fill="#ee6435" d="
  M 274.96 228.04
  C 269.43 237.89 259.40 245.09 248.01 246.97
  C 239.37 248.40 230.62 248.05 222.06 248.01
  A 0.37 0.37 0.0 0 1 221.69 247.64
  L 221.71 169.03
  Q 221.71 168.45 222.30 168.46
  Q 233.14 168.56 242.17 168.50
  C 255.41 168.41 267.45 172.10 274.76 183.27
  C 283.09 196.00 281.99 215.53 274.96 228.04
  Z"
/>
</svg>
